<?xml version="1.0" encoding="UTF-8"?>
<svg width="434px" height="63px" viewBox="0 0 434 63" version="1.1" xmlns="http://www.w3.org/2000/svg" xmlns:xlink="http://www.w3.org/1999/xlink">
    <!-- Generator: Sketch 54.1 (76490) - https://sketchapp.com -->
    <title>logo</title>
    <desc>Created with Sketch.</desc>
    <g id="Page-1" stroke="none" stroke-width="1" fill="none" fill-rule="evenodd">
        <g id="logo" fill="#374858" fill-rule="nonzero">
            <polygon id="Path" points="58.05 7.82 65.39 16.81 80.59 16.8 80.59 53.03 9.63 53.03 9.63 16.81 24.83 16.81 32.17 7.82 0.26 7.83 0.27 62.02 89.96 62.01 89.95 7.82"></polygon>
            <polygon id="Path" points="19.02 33.09 71.2 33.08 71.3 32.95 45.11 0.89 18.92 32.95"></polygon>
            <path d="M133.25,9.63 L110.37,62 L119.73,62 L125.08,49.45 L149.67,49.45 L154.94,62 L164.6,62 L141.72,9.63 L133.25,9.63 Z M128.42,41.36 L137.33,20.56 L146.33,41.36 L128.42,41.36 Z" id="Shape"></path>
            <rect id="Rectangle" x="170.02" y="22.78" width="8.99" height="39.22"></rect>
            <rect id="Rectangle" x="169.65" y="8.22" width="9.66" height="8.54"></rect>
            <path d="M196.77,31.62 L196.77,22.78 L187.77,22.78 L187.77,62 L196.77,62 L196.77,47.07 C196.77,36.68 202.27,31.54 210.14,31.54 L210.66,31.54 L210.66,22 C203.75,21.74 199.22,25.75 196.77,31.62 Z" id="Path"></path>
            <path d="M236.58,31.09 C226.58,28.72 224.26,26.94 224.26,22.85 C224.26,19.36 227.38,16.61 232.72,16.61 C237.47,16.61 242.16,18.47 246.84,21.96 L251.74,15.05 C246.43226,10.6875257 239.738992,8.36776032 232.87,8.51 C222.55,8.51 215.12,14.6 215.12,23.67 C215.12,33.33 221.36,36.59 232.42,39.27 C242.08,41.5 244.17,43.5 244.17,47.27 C244.17,51.27 240.6,53.87 234.96,53.88 C228.49,53.88 223.51,51.43 218.54,47.11 L213,53.68 C218.942698,59.0818192 226.699269,62.0516617 234.73,62 C245.65,62 253.31,56.21 253.31,46.4 C253.31,37.71 247.58,33.77 236.58,31.09 Z" id="Path"></path>
            <path d="M277.07,21.06 C265.86,21.06 257.91,30.28 257.91,41.57 C257.91,53.76 266.68,62 278,62 C284.185922,62.1812399 290.102448,59.4670337 294,54.66 L288.82,50 C285.7,53 282.57,54.69 278.2,54.69 C272.4,54.69 267.94,51.12 266.9,44.69 L295.73,44.69 C295.8,43.8 295.87,43.05 295.87,42.24 C295.87,30.87 289.55,21.06 277.07,21.06 Z M266.82,38.75 C267.64,32.65 271.5,28.42 277,28.42 C282.95,28.42 286.37,32.95 287,38.74 L266.82,38.75 Z" id="Shape"></path>
            <path d="M311,31.61 L311,22.77 L302,22.77 L302,62 L311,62 L311,47.06 C311,36.67 316.49,31.53 324.37,31.53 L324.89,31.53 L324.89,22 C317.94,21.73 313.4,25.74 311,31.61 Z" id="Path"></path>
            <polygon id="Path" points="346.17 51.29 335.62 22.47 325.96 22.47 342.08 61.99 350.18 61.99 366.23 22.47 356.79 22.47"></polygon>
            <path d="M385.69,21.05 C374.47,21.05 366.52,30.27 366.52,41.56 C366.52,53.75 375.29,61.99 386.66,61.98 C392.846238,62.162793 398.76342,59.4482859 402.66,54.64 L397.43,50 C394.31,53 391.18,54.69 386.81,54.69 C381.01,54.69 376.55,51.12 375.51,44.69 L404.34,44.69 C404.41,43.8 404.48,43.05 404.48,42.24 C404.48,30.86 398.17,21.05 385.69,21.05 Z M375.43,38.74 C376.25,32.64 380.12,28.41 385.61,28.41 C391.55,28.41 394.98,32.94 395.61,38.73 L375.43,38.74 Z" id="Shape"></path>
            <path d="M419.57,31.6 L419.57,22.76 L410.57,22.76 L410.57,62 L419.57,62 L419.57,47.05 C419.57,36.66 425.06,31.52 432.94,31.52 L433.46,31.52 L433.46,22 C426.55,21.72 422,25.73 419.57,31.6 Z" id="Path"></path>
        </g>
    </g>
</svg>